PathFileType	4	(X/Y/Z)	C:/Users/opensim2020/Desktop/walking_exp_matlab/subject02_walking12_straight_04.trc																																																																																																																												
DataRate	CameraRate	NumFrames	NumMarkers	Units	OrigDataRate	OrigDataStartFrame	OrigNumFrames																																																																																																																								
100	100	8	42	mm	100	2102	125																																																																																																																								
Frame#	Time	LFHD			RFHD			LBHD			RBHD			C7			T10			CLAV			STRN			RBAK			LSHO			LUPA			LELB			LFRM			LWRA			LWRB			LFIN			RSHO			RUPA			RELB			RFRM			RWRA			RWRB			RFIN			LASI			RASI			LPSI			RPSI			LTHI			LKNE			LTIB			LANK			LHEE			LTOE			RTHI			RKNE			RTIB			RANK			RHEE			RTOE			*39			*40			*41		
		X1	Y1	Z1	X2	Y2	Z2	X3	Y3	Z3	X4	Y4	Z4	X5	Y5	Z5	X6	Y6	Z6	X7	Y7	Z7	X8	Y8	Z8	X9	Y9	Z9	X10	Y10	Z10	X11	Y11	Z11	X12	Y12	Z12	X13	Y13	Z13	X14	Y14	Z14	X15	Y15	Z15	X16	Y16	Z16	X17	Y17	Z17	X18	Y18	Z18	X19	Y19	Z19	X20	Y20	Z20	X21	Y21	Z21	X22	Y22	Z22	X23	Y23	Z23	X24	Y24	Z24	X25	Y25	Z25	X26	Y26	Z26	X27	Y27	Z27	X28	Y28	Z28	X29	Y29	Z29	X30	Y30	Z30	X31	Y31	Z31	X32	Y32	Z32	X33	Y33	Z33	X34	Y34	Z34	X35	Y35	Z35	X36	Y36	Z36	X37	Y37	Z37	X38	Y38	Z38	X39	Y39	Z39	X40	Y40	Z40	X41	Y41	Z41	X42	Y42	Z42
																																																																																																																															
110	1.09	742.85437	1715.96118	-1475.74219	698.06775	1688.51282	-1341.05432	612.40613	1661.14392	-1528.33911	557.63751	1634.45386	-1397.29211	521.18927	1517.2749	-1471.49707	466.5332	1237.46289	-1479.28235	657.37537	1443.13806	-1472.03418	707.85474	1271.55115	-1471.28467	454.89932	1336.23962	-1421.97229	605.60986	1500.8031	-1641.71399	638.43164	1321.32532	-1755.10522	678.84326	1190.85352	-1796.06543	742.38184	1076.66016	-1821.85583	841.05481	980.33777	-1795.54761	802.3783	970.0108	-1835.8584	847.84369	921.83502	-1843.18628	577.78241	1465.77185	-1281.21375	532.28516	1273.99707	-1209.84473	543.18018	1127.28113	-1189.58325	576.552	1010.67548	-1173.88794	634.15356	888.30359	-1196.62	586.79791	880.90582	-1165.59961	627.76166	819.84985	-1165.8269	692.45807	980.46625	-1622.59277	699.67633	964.41815	-1365.99023	485.85672	1022.93561	-1531.98145	482.47195	1017.79877	-1418.06787	596.12384	672.55176	-1673.03174	538.28186	474.55533	-1648.00781	453.8511	297.8942	-1655.13025	424.86487	74.62735	-1625.11206	384.57605	48.041	-1576.58179	579.28174	29.79121	-1634.34851	697.53821	667.93945	-1287.73608	765.58392	471.09753	-1325.67493	753.45532	282.88461	-1338.75781	778.5351	93.91086	-1383.91711	776.71344	39.73217	-1452.49756	922.06366	61.97824	-1326.70276	626.99213	1789.62427	-1412.20532	-2845.83472	1034.34692	3357.38477	NaN	NaN	NaN
111	1.1	755.92859	1713.44275	-1473.19714	710.24036	1685.87268	-1338.83655	625.71521	1658.9895	-1526.76563	570.1261	1632.19812	-1396.09216	533.83502	1515.03467	-1470.42603	479.05719	1235.17737	-1477.45374	669.99237	1440.70093	-1470.41821	720.27856	1269.12939	-1469.82104	466.89847	1334.27563	-1421.38965	618.95056	1498.7804	-1639.99023	654.17505	1321.41089	-1754.45007	697.87054	1192.0415	-1796.3667	765.58405	1079.90771	-1822.03345	867.39514	987.43488	-1795.80835	829.23151	975.68591	-1836.12183	876.6311	929.68628	-1843.78809	589.82355	1463.38599	-1279.79077	541.73694	1271.99536	-1209.25818	551.05548	1125.45068	-1188.80627	581.82959	1008.224	-1172.55554	637.5047	884.62433	-1194.25146	589.68195	878.33459	-1163.81555	629.20477	816.33459	-1163.53149	704.48151	978.11737	-1621.45276	712.76379	961.66229	-1364.31787	497.85925	1020.42273	-1529.66101	495.05905	1014.83398	-1416.12451	604.48364	671.58386	-1672.4563	544.23633	473.90683	-1647.12842	457.41245	298.42581	-1654.30835	425.51492	75.18745	-1624.56116	385.15118	49.10528	-1575.41382	579.48615	29.68515	-1634.48682	709.94666	664.59357	-1287.67651	778.77045	468.3786	-1327.19543	777.65564	279.84714	-1338.28381	815.09808	92.17086	-1380.81421	817.05035	37.991	-1449.37842	960.12451	67.82722	-1322.3374	639.86157	1787.21448	-1410.3075	-2845.17505	1034.24939	3360.27661	NaN	NaN	NaN
112	1.11	768.84143	1710.74646	-1470.50317	722.36493	1683.18274	-1336.51416	639.01263	1656.67468	-1524.99573	582.52252	1629.84326	-1394.78088	546.44604	1512.67334	-1469.15454	491.50729	1232.78882	-1475.49048	682.65417	1438.20117	-1468.69116	732.80975	1266.61597	-1468.16089	479.22223	1331.75269	-1420.42566	632.23334	1496.53162	-1638.05115	669.69928	1320.97205	-1753.25647	716.36548	1193.06519	-1796.24487	787.85107	1083.34363	-1822.2262	892.95349	994.65802	-1795.7655	855.27386	981.42047	-1836.04541	904.56189	937.6817	-1844.04968	601.71942	1461.08179	-1278.34119	552.34491	1269.96472	-1207.88757	558.9436	1123.52063	-1187.94348	587.94458	1005.83398	-1170.8407	641.21967	881.10913	-1191.59888	593.04437	875.95367	-1162.04626	630.82654	812.9939	-1161.10913	716.79169	975.89734	-1620.08911	726.16425	958.96442	-1362.56995	510.05627	1017.74628	-1527.25952	507.75522	1011.66583	-1414.20325	612.89471	670.2962	-1671.5282	550.54962	473.28232	-1646.2688	461.08844	299.12076	-1653.43042	426.05017	76.18732	-1624.01538	385.711	50.19659	-1574.86853	579.67859	29.51959	-1634.65991	721.68872	660.72443	-1287.51233	791.78033	465.46362	-1328.75745	801.17938	277.49353	-1337.58643	849.51337	91.43396	-1377.76465	854.56915	37.25278	-1445.77319	995.95227	73.9621	-1318.19446	652.6377	1784.74609	-1408.27527	-2845.04517	1034.31189	3360.41479	NaN	NaN	NaN
113	1.12	781.84857	1708.12	-1467.77148	734.48346	1680.41602	-1334.10718	652.23358	1654.31177	-1523.177	594.93311	1627.39038	-1393.26257	558.95892	1510.22217	-1467.73853	504.09265	1230.27319	-1473.38684	695.30908	1435.6145	-1466.75403	745.39166	1264.11145	-1466.2959	491.77441	1329.16455	-1419.05115	645.40332	1494.20264	-1635.93567	684.98767	1320.47791	-1751.91479	734.44763	1194.01086	-1796.05115	809.58948	1086.66931	-1821.90723	917.81439	1002.02625	-1795.46899	880.61768	987.26813	-1835.63025	931.59869	945.80206	-1844.00647	613.33679	1458.66528	-1276.72949	562.48621	1267.96399	-1206.50415	567.521	1121.71606	-1186.67175	594.67566	1003.9516	-1169.09802	645.06146	877.84845	-1188.96582	596.164	873.60101	-1159.98193	632.82721	809.79077	-1158.50549	729.53363	973.86633	-1618.44299	739.4068	956.05957	-1360.76111	522.46912	1014.91077	-1524.79395	520.74689	1008.35596	-1412.11938	621.88782	669.1283	-1670.8645	557.29669	472.77805	-1645.40479	464.82526	300.16757	-1652.5459	426.72736	77.35006	-1623.51855	386.349	52.14178	-1574.22632	579.88287	29.48993	-1634.83533	732.77319	656.59637	-1286.70288	804.89551	462.58331	-1330.36035	824.14215	276.00455	-1336.73242	881.80865	91.78398	-1374.62524	889.383	38.02277	-1442.36914	1029.59033	80.1023	-1314.54028	665.30688	1782.21143	-1406.14722	-2845.77124	1034.28772	3357.31104	NaN	NaN	NaN
114	1.13	794.7464	1705.43323	-1464.90894	746.50104	1677.68396	-1331.53699	665.40985	1651.86499	-1521.20227	607.16699	1624.88232	-1391.67126	571.42023	1507.7157	-1466.14185	516.7442	1227.62549	-1471.21765	707.95941	1433.04712	-1464.67761	757.98724	1261.59033	-1464.19678	504.21942	1326.66284	-1417.58545	658.36542	1491.89709	-1633.66541	700.06281	1319.81238	-1750.33508	751.84143	1194.63989	-1795.35522	830.64307	1089.84912	-1821.19275	941.92444	1009.44043	-1794.97888	905.19183	993.10687	-1834.82422	957.31427	953.53839	-1843.46375	625.50519	1456.24792	-1274.71814	572.48138	1265.91296	-1204.93652	575.52295	1119.73071	-1185.49805	600.30505	1001.35162	-1167.16638	649.17792	874.58435	-1186.22498	600.17218	871.19586	-1158.00806	635.45691	806.9364	-1155.81384	742.02881	971.98877	-1616.66174	752.97083	953.0899	-1358.85486	535.13361	1011.99231	-1522.27576	533.89624	1005.03864	-1409.97253	631.37756	667.95856	-1670.06921	564.61749	472.36493	-1644.58545	468.89743	301.39752	-1651.60522	427.39392	78.86471	-1623.21716	387.02579	53.92782	-1573.94983	580.02222	29.31266	-1634.96423	742.98926	652.22955	-1285.97498	818.40247	459.96899	-1331.61377	845.39996	274.75333	-1335.67322	911.44373	92.59921	-1371.60767	921.54053	38.65108	-1437.89038	1060.3783	85.5731	-1311.41479	677.9986	1779.5968	-1403.94604	-2845.99609	1034.30273	3357.41431	NaN	NaN	NaN
115	1.14	807.62952	1702.79712	-1461.91833	758.52484	1675.06177	-1328.87292	678.59155	1649.3689	-1519.04126	619.61017	1622.36768	-1389.87402	583.76654	1505.17419	-1464.40723	529.44012	1225.01184	-1468.93274	720.53607	1430.47437	-1462.38538	770.63531	1259.16235	-1461.87622	516.66852	1324.03235	-1415.87817	671.17163	1489.57031	-1631.18445	714.90839	1319.03003	-1748.49634	768.6153	1195.01953	-1794.26221	851.07452	1092.79419	-1820.25928	965.27423	1016.83008	-1794.23523	929.01343	998.87244	-1833.80945	982.62695	961.67621	-1842.68359	637.02618	1453.76892	-1272.87292	582.74005	1263.99524	-1203.16309	584.09082	1117.81689	-1184.09155	606.57062	999.30402	-1165.39111	653.48004	871.4007	-1183.4032	604.10876	869.11353	-1155.88635	637.27344	803.91241	-1153.46155	755.13831	970.04456	-1614.73779	766.10553	950.15625	-1357.0896	548.04425	1009.1192	-1519.66992	547.28625	1001.77081	-1407.61816	641.28424	666.8172	-1669.03259	572.474	472.0267	-1643.77563	473.41681	302.82489	-1650.6875	428.23352	80.81697	-1623.27917	387.54907	56.84258	-1573.83752	580.17419	29.24647	-1635.15015	753.21533	648.32281	-1285.34717	832.00696	457.45941	-1332.57349	865.61688	273.94208	-1335.00244	938.10834	93.46097	-1369.06995	949.86536	40.31037	-1435.71545	1088.2356	89.8614	-1308.76782	690.57507	1777.15222	-1401.69226	-2845.82495	1034.33447	3357.56177	NaN	NaN	NaN
116	1.15	820.45947	1700.28064	-1458.83521	770.57343	1672.50818	-1326.06653	691.68524	1646.91284	-1516.68335	631.87378	1619.922	-1387.9668	596.27411	1502.67065	-1462.21826	542.35529	1222.35645	-1466.52881	733.06085	1428.04858	-1459.87317	783.33423	1256.82935	-1459.28552	529.17957	1321.547	-1413.97229	683.90344	1487.30872	-1628.6051	729.39124	1318.14453	-1746.37744	784.90308	1195.15588	-1793.02112	870.77704	1095.61377	-1818.97693	987.80823	1024.33582	-1793.40588	951.73132	1004.29791	-1832.25159	1006.94086	969.20007	-1841.32593	649.29333	1451.32617	-1270.38513	593.35553	1262.09485	-1201.1947	593.05994	1115.96252	-1182.51074	612.88019	997.01874	-1163.50549	659.34723	868.73474	-1179.96228	608.27441	866.96252	-1153.64819	640.53027	801.21051	-1150.52417	768.46442	968.15723	-1612.8092	780.31592	947.55511	-1354.90857	561.21594	1006.38007	-1517.02551	560.92651	998.71301	-1405.12158	651.63721	665.90393	-1667.87073	580.96295	471.85129	-1643.12927	478.40729	304.75598	-1650.06604	429.20782	83.14862	-1623.39941	388.36969	59.72157	-1574.14233	580.31946	29.2509	-1635.43127	763.96985	644.61957	-1284.88818	846.86359	455.47812	-1333.12012	884.22089	272.91101	-1334.2749	961.50391	93.96661	-1367.15601	974.27911	41.20592	-1433.70264	1112.71936	92.46626	-1307.44177	703.06305	1774.53406	-1399.1698	-2845.85474	1034.32397	3357.37061	NaN	NaN	NaN
117	1.16	833.20984	1697.79651	-1455.59521	782.59918	1670.14929	-1323.15015	704.78082	1644.50073	-1514.21838	644.18616	1617.55444	-1385.83521	608.66931	1500.2583	-1459.86951	555.36987	1219.7334	-1464.05737	745.55219	1425.74585	-1457.15222	796.10657	1254.6709	-1456.47302	541.81384	1318.74915	-1411.6825	696.40417	1485.05542	-1625.87598	743.49158	1316.99426	-1744.04138	800.61188	1195.06909	-1791.4801	889.80847	1098.28577	-1817.32581	1009.23773	1031.35352	-1791.98755	973.92633	1009.87347	-1830.46912	1030.36914	977.32196	-1840.2323	660.92059	1448.87842	-1268.07056	603.44464	1259.849	-1199.03723	601.83093	1113.90112	-1180.89368	620.53528	995.01324	-1161.03552	663.00745	865.40704	-1177.53931	612.93097	865.02478	-1151.40796	644.25317	798.82428	-1147.60156	781.89703	966.36572	-1610.75891	794.31171	945.09949	-1352.78528	574.64093	1003.8158	-1514.30969	574.83105	995.90948	-1402.36597	662.45367	665.00714	-1666.65894	590.03198	471.70163	-1642.58691	484.10129	306.7753	-1649.56897	430.46515	85.78501	-1623.73425	389.30032	63.50134	-1574.47156	580.43414	29.04926	-1635.64185	776.43542	641.77075	-1284.48499	862.67084	454.14047	-1332.68359	901.6521	271.79678	-1333.479	981.37769	93.60257	-1365.84656	994.28571	41.20064	-1432.38879	1133.81812	92.81672	-1307.24109	715.49756	1772.11975	-1396.6571	-2845.20435	1034.16724	3360.27734	NaN	NaN	NaN
